<svg width="33" height="42" viewBox="0 0 33 42" fill="none" xmlns="http://www.w3.org/2000/svg">
<path d="M14.994 0.748C16.5407 0.670665 17.8167 0.631998 18.822 0.631998C22.302 0.631998 25.492 0.863998 28.392 1.328C29.8613 1.48267 31.2727 1.71467 32.626 2.024V10.318C31.002 10.1633 29.784 10.028 28.972 9.912C28.3147 9.87333 27.2513 9.77667 25.782 9.622C24.3127 9.54466 23.346 9.506 22.882 9.506C20.5233 9.506 18.7833 9.564 17.662 9.68C16.5793 9.75733 15.69 9.98933 14.994 10.376V0.748ZM18.822 41.464C14.9553 41.464 11.862 41.174 9.542 40.594C7.26067 40.014 5.482 38.9893 4.206 37.52C2.93 36.0507 2.02133 34.0207 1.48 31.43C0.977333 28.8393 0.726 25.3787 0.726 21.048C0.726 17.3747 0.9 14.3587 1.248 12C1.596 9.64133 2.19533 7.708 3.046 6.2C3.93533 4.65333 5.134 3.474 6.642 2.662C8.15 1.85 10.122 1.28933 12.558 0.979997V21.048C12.558 23.7933 12.6353 25.9007 12.79 27.37C12.9447 28.8007 13.2347 29.9027 13.66 30.676C14.124 31.488 14.7813 32.0487 15.632 32.358C16.5213 32.6673 17.778 32.822 19.402 32.822V41.464H18.822ZM21.838 25.688H17.72V17.278H32.8V40.014C30.9827 40.4393 28.7207 40.768 26.014 41C24.6993 41.1933 23.3073 41.3093 21.838 41.348V25.688Z" fill="#34A269"/>
</svg>
