<svg width="157" height="41" viewBox="0 0 157 41" fill="none" xmlns="http://www.w3.org/2000/svg">
<path d="M35.419 16.664H42.283L47.959 27.686L53.503 16.664H60.367V39.368H53.503V27.257L49.312 35.177H46.507L42.283 27.257V39.368H35.419V16.664Z" fill="white"/>
<path d="M68.9707 16.664H79.0027L85.5697 39.368H77.8147L76.9567 35.012H71.0827L70.1257 39.368H62.7007L68.9707 16.664ZM76.1647 30.953L74.0197 21.02L71.7757 30.953H76.1647Z" fill="white"/>
<path d="M87.7549 16.664H94.8829V34.352H102.77V39.368H87.7549V16.664Z" fill="white"/>
<path d="M107.012 21.68H102.294V16.664H119.421V21.68H114.701V39.368H107.012V21.68Z" fill="white"/>
<path d="M122.527 16.664H138.466V21.68H130.546V25.805H137.773V29.963H130.546V34.352H138.466V39.368H122.527V16.664Z" fill="white"/>
<path d="M141.196 34.583L148.951 21.482H141.493V16.664H156.343V21.482L148.753 34.55H156.673V39.368H141.196V34.583Z" fill="white"/>
<path d="M14.268 0.116002C15.8147 0.0386673 17.0907 0 18.096 0C21.576 0 24.766 0.232 27.666 0.696001C29.1353 0.850668 30.5467 1.08267 31.9 1.392V9.686C30.276 9.53133 29.058 9.396 28.246 9.28C27.5887 9.24134 26.5253 9.14467 25.056 8.99C23.5867 8.91267 22.62 8.874 22.156 8.874C19.7973 8.874 18.0573 8.932 16.936 9.048C15.8533 9.12533 14.964 9.35733 14.268 9.744V0.116002ZM18.096 40.832C14.2293 40.832 11.136 40.542 8.816 39.962C6.53467 39.382 4.756 38.3573 3.48 36.888C2.204 35.4187 1.29533 33.3887 0.754 30.798C0.251333 28.2073 0 24.7467 0 20.416C0 16.7427 0.174 13.7267 0.522 11.368C0.87 9.00933 1.46933 7.076 2.32 5.568C3.20933 4.02133 4.408 2.842 5.916 2.03C7.424 1.218 9.396 0.657333 11.832 0.347999V20.416C11.832 23.1613 11.9093 25.2687 12.064 26.738C12.2187 28.1687 12.5087 29.2707 12.934 30.044C13.398 30.856 14.0553 31.4167 14.906 31.726C15.7953 32.0353 17.052 32.19 18.676 32.19V40.832H18.096ZM21.112 25.056H16.994V16.646H32.074V39.382C30.2567 39.8073 27.9947 40.136 25.288 40.368C23.9733 40.5613 22.5813 40.6773 21.112 40.716V25.056Z" fill="#34A269"/>
</svg>
